<svg width="6" height="6" viewBox="0 0 6 6" fill="none" xmlns="http://www.w3.org/2000/svg">
<path fill-rule="evenodd" clip-rule="evenodd" d="M-1.14742e-07 2.625C-1.23795e-07 2.41789 0.167893 2.25 0.375 2.25L4.71967 2.25L3.10983 0.640165C2.96339 0.493719 2.96339 0.256282 3.10983 0.109835C3.25628 -0.0366112 3.49372 -0.0366112 3.64016 0.109835L5.89016 2.35983C6.03661 2.50628 6.03661 2.74372 5.89016 2.89017L3.64017 5.14016C3.49372 5.28661 3.25628 5.28661 3.10983 5.14016C2.96339 4.99372 2.96339 4.75628 3.10983 4.60983L4.71967 3L0.375 3C0.167893 3 -1.05689e-07 2.83211 -1.14742e-07 2.625Z" fill="white"/>
</svg>
