<svg width="24" height="24" viewBox="0 0 24 24" fill="none" xmlns="http://www.w3.org/2000/svg">
<path d="M13.625 0.812203C13.625 0.366092 14.0547 0 14.5918 0C15.1289 0 15.5586 0.36209 15.5586 0.812203V4.36109C15.5586 4.8072 15.1289 5.17329 14.5918 5.17329C14.0547 5.17329 13.625 4.8112 13.625 4.36109V0.812203ZM2.80664 15.6139H5.02148C5.16211 15.6139 5.27734 15.7319 5.27734 15.876V17.5524C5.27734 17.6964 5.16211 17.8145 5.02148 17.8145H2.80664C2.66602 17.8145 2.55078 17.6964 2.55078 17.5524V15.876C2.55078 15.7299 2.66602 15.6139 2.80664 15.6139ZM11.2871 10.8367H13.502C13.5703 10.8367 13.6309 10.8647 13.6777 10.9087C12.8086 11.4649 12.0547 12.189 11.457 13.0393H11.2871C11.1465 13.0393 11.0312 12.9212 11.0312 12.7772V11.1008C11.0312 10.9547 11.1465 10.8367 11.2871 10.8367ZM7.04688 10.8367H9.26172C9.40234 10.8367 9.51758 10.9547 9.51758 11.0988V12.7752C9.51758 12.9192 9.40234 13.0373 9.26172 13.0373H7.04688C6.90625 13.0373 6.79102 12.9192 6.79102 12.7752V11.0988C6.79102 10.9547 6.90625 10.8367 7.04688 10.8367ZM2.80664 10.8367H5.02148C5.16211 10.8367 5.27734 10.9547 5.27734 11.0988V12.7752C5.27734 12.9192 5.16211 13.0373 5.02148 13.0373H2.80664C2.66602 13.0373 2.55078 12.9192 2.55078 12.7752V11.0988C2.55078 10.9547 2.66602 10.8367 2.80664 10.8367ZM7.04688 15.6139H9.26172C9.40234 15.6139 9.51758 15.7319 9.51758 15.876V17.5524C9.51758 17.6964 9.40234 17.8145 9.26172 17.8145H7.04688C6.90625 17.8145 6.79102 17.6964 6.79102 17.5524V15.876C6.79102 15.7299 6.90625 15.6139 7.04688 15.6139ZM20.2129 11.911C22.5 12.8812 24 15.1678 24 17.7164C24 19.4509 23.3125 21.0233 22.2031 22.1595C21.0938 23.2958 19.5605 24 17.8652 24C16.1719 24 14.6387 23.2958 13.5273 22.1595C12.418 21.0213 11.7305 19.4509 11.7305 17.7164C11.7305 15.1878 13.2656 12.8292 15.5488 11.869C16.9648 11.2768 18.8066 11.3128 20.2129 11.911ZM16.9219 17.5484C16.998 17.4624 17.0918 17.3883 17.1934 17.3323V14.5997C17.1934 14.3216 17.4141 14.0955 17.6855 14.0955C17.957 14.0955 18.1797 14.3216 18.1797 14.5997V17.3323C18.3594 17.4324 18.5078 17.5824 18.6035 17.7664H20.5098C20.7832 17.7664 21.002 17.9925 21.002 18.2706C21.002 18.5486 20.7812 18.7747 20.5098 18.7747H18.6035C18.4277 19.1108 18.084 19.3388 17.6855 19.3388C17.373 19.3388 17.0938 19.1968 16.9023 18.9747C16.5488 18.5606 16.5664 17.9425 16.9219 17.5484ZM21.5078 14.0855C18.9668 11.4829 14.6816 12.2191 13.1953 15.4959C12.8906 16.17 12.7188 16.9222 12.7188 17.7144C12.7188 19.1708 13.2949 20.4891 14.2266 21.4434C15.1582 22.3976 16.4453 22.9877 17.8672 22.9877C19.2891 22.9877 20.5762 22.3956 21.5078 21.4434C22.4395 20.4891 23.0156 19.1708 23.0156 17.7144C23.0156 16.8882 22.8301 16.106 22.5 15.4099C22.248 14.8837 21.9121 14.4996 21.5078 14.0855ZM4.94727 0.812203C4.94727 0.366092 5.37695 0 5.91406 0C6.44922 0 6.88086 0.36209 6.88086 0.812203V4.36109C6.88086 4.8072 6.44922 5.17329 5.91406 5.17329C5.37891 5.17329 4.94727 4.8112 4.94727 4.36109V0.812203ZM1.06445 7.75994H19.4648V3.67492C19.4648 3.53488 19.4102 3.41285 19.3223 3.32283C19.2344 3.23281 19.1094 3.17679 18.9785 3.17679H17.2148C16.9199 3.17679 16.6797 2.93073 16.6797 2.62866C16.6797 2.32658 16.9199 2.08052 17.2148 2.08052H18.9785C19.4102 2.08052 19.7988 2.25856 20.082 2.54864C20.3652 2.83871 20.5391 3.23681 20.5391 3.67892V10.1665C20.1875 10.0425 19.8262 9.94249 19.4531 9.86847V8.85421H19.4648H1.06445V19.4389C1.06445 19.5789 1.11914 19.7009 1.20703 19.7909C1.29492 19.881 1.41992 19.937 1.55078 19.937H10.2949C10.3945 20.3171 10.5195 20.6892 10.6699 21.0453H1.56055C1.13086 21.0453 0.740234 20.8672 0.457031 20.5771C0.173828 20.2851 0 19.889 0 19.4469V3.67892C0 3.23881 0.173828 2.84071 0.457031 2.54864C0.740234 2.25856 1.12891 2.08052 1.56055 2.08052H3.44336C3.73828 2.08052 3.97852 2.32658 3.97852 2.62866C3.97852 2.93073 3.73828 3.17679 3.44336 3.17679H1.56055C1.42383 3.17679 1.30469 3.23281 1.2168 3.32283C1.12891 3.41285 1.07422 3.54089 1.07422 3.67492V7.76194H1.06445V7.75994ZM8.42383 3.17479C8.12891 3.17479 7.88867 2.92873 7.88867 2.62666C7.88867 2.32458 8.12891 2.07852 8.42383 2.07852H12.0156C12.3105 2.07852 12.5508 2.32458 12.5508 2.62666C12.5508 2.92873 12.3105 3.17479 12.0156 3.17479H8.42383Z" fill="#00A450"/>
</svg>
