<svg width="33" height="29" viewBox="0 0 33 29" fill="none" xmlns="http://www.w3.org/2000/svg">
<path fill-rule="evenodd" clip-rule="evenodd" d="M0 1.35C0 0.604415 0.604416 0 1.35 0H20.25C20.9956 0 21.6 0.604415 21.6 1.35C21.6 2.09558 20.9956 2.7 20.25 2.7H19.8V27.45C19.8 28.1956 19.1956 28.8 18.45 28.8H15.75C15.0044 28.8 14.4 28.1956 14.4 27.45V22.95C14.4 22.2044 13.7956 21.6 13.05 21.6H8.55C7.80442 21.6 7.2 22.2044 7.2 22.95V27.45C7.2 28.1956 6.59558 28.8 5.85 28.8H1.35C0.604416 28.8 0 28.1956 0 27.45C0 26.7044 0.604416 26.1 1.35 26.1H1.8V2.7H1.35C0.604416 2.7 0 2.09558 0 1.35ZM5.4 6.3C5.4 5.80294 5.80294 5.4 6.3 5.4H8.1C8.59706 5.4 9 5.80294 9 6.3V8.1C9 8.59706 8.59706 9 8.1 9H6.3C5.80294 9 5.4 8.59706 5.4 8.1V6.3ZM6.3 12.6C5.80294 12.6 5.4 13.0029 5.4 13.5V15.3C5.4 15.7971 5.80294 16.2 6.3 16.2H8.1C8.59706 16.2 9 15.7971 9 15.3V13.5C9 13.0029 8.59706 12.6 8.1 12.6H6.3ZM12.6 6.3C12.6 5.80294 13.0029 5.4 13.5 5.4H15.3C15.7971 5.4 16.2 5.80294 16.2 6.3V8.1C16.2 8.59706 15.7971 9 15.3 9H13.5C13.0029 9 12.6 8.59706 12.6 8.1V6.3ZM13.5 12.6C13.0029 12.6 12.6 13.0029 12.6 13.5V15.3C12.6 15.7971 13.0029 16.2 13.5 16.2H15.3C15.7971 16.2 16.2 15.7971 16.2 15.3V13.5C16.2 13.0029 15.7971 12.6 15.3 12.6H13.5Z" fill="#00A450"/>
<path fill-rule="evenodd" clip-rule="evenodd" d="M23.85 7.2C23.1044 7.2 22.5 7.80442 22.5 8.55V27C22.5 27.9941 23.3059 28.8 24.3 28.8H31.05C31.7956 28.8 32.4 28.1956 32.4 27.45C32.4 26.7044 31.7956 26.1 31.05 26.1H30.6V9.9H31.05C31.7956 9.9 32.4 9.29558 32.4 8.55C32.4 7.80442 31.7956 7.2 31.05 7.2H23.85ZM24.75 13.5C24.75 13.0029 25.1529 12.6 25.65 12.6H27.45C27.9471 12.6 28.35 13.0029 28.35 13.5V15.3C28.35 15.7971 27.9471 16.2 27.45 16.2H25.65C25.1529 16.2 24.75 15.7971 24.75 15.3V13.5ZM25.65 19.8C25.1529 19.8 24.75 20.2029 24.75 20.7V22.5C24.75 22.9971 25.1529 23.4 25.65 23.4H27.45C27.9471 23.4 28.35 22.9971 28.35 22.5V20.7C28.35 20.2029 27.9471 19.8 27.45 19.8H25.65Z" fill="#00A450"/>
</svg>
