<svg width="28" height="25" viewBox="0 0 28 25" fill="none" xmlns="http://www.w3.org/2000/svg">
<path fill-rule="evenodd" clip-rule="evenodd" d="M12.8661 14.6339C13.3543 15.122 14.1457 15.122 14.6339 14.6339L27.1339 2.13388C27.622 1.64573 27.622 0.854273 27.1339 0.366117C26.6457 -0.122038 25.8543 -0.122038 25.3661 0.366117L13.75 11.9822L2.13388 0.366117C1.64573 -0.122038 0.854272 -0.122038 0.366117 0.366117C-0.122039 0.854273 -0.122039 1.64573 0.366117 2.13388L12.8661 14.6339Z" fill="white"/>
<path fill-rule="evenodd" clip-rule="evenodd" d="M12.8661 24.6339C13.3543 25.122 14.1457 25.122 14.6339 24.6339L27.1339 12.1339C27.622 11.6457 27.622 10.8543 27.1339 10.3661C26.6457 9.87796 25.8543 9.87796 25.3661 10.3661L13.75 21.9822L2.13388 10.3661C1.64573 9.87796 0.854272 9.87796 0.366117 10.3661C-0.122039 10.8543 -0.122039 11.6457 0.366117 12.1339L12.8661 24.6339Z" fill="white"/>
</svg>
