<svg width="14" height="14" viewBox="0 0 14 14" fill="none" xmlns="http://www.w3.org/2000/svg">
<path d="M10.2095 3.10229L9.84326 2.99976C9.5244 2.91079 8.83875 2.83472 8.43994 2.83472C7.39452 2.83472 6.52578 3.08247 5.92627 3.69702C5.32947 4.30893 5.09136 5.1907 5.09131 6.25073V6.52222H3.88818V9.3103H5.09131V12.0232C3.08964 11.2514 1.66667 9.30292 1.6665 7.02222C1.6665 4.06271 4.05555 1.66692 6.99951 1.66675C9.94362 1.66675 12.3335 4.0626 12.3335 7.02222C12.3333 9.56395 10.5698 11.6874 8.20654 12.2361V9.3103H9.70166L9.77686 8.90015L10.105 7.11206L10.2134 6.52222H8.2085V6.3855C8.20856 5.96033 8.29533 5.80181 8.36377 5.73413C8.43406 5.66481 8.59954 5.57788 9.03467 5.57788C9.328 5.57788 9.54801 5.58718 9.65967 5.59839L10.2095 5.65308V3.10229Z" fill="white" stroke="white"/>
</svg>
