<svg width="14" height="14" viewBox="0 0 14 14" fill="none" xmlns="http://www.w3.org/2000/svg">
<path d="M7 0C6.03385 0 5.12695 0.182292 4.2793 0.546875C3.42253 0.911458 2.67741 1.41048 2.04395 2.04395C1.41048 2.67741 0.911458 3.42253 0.546875 4.2793C0.182292 5.12695 0 6.03385 0 7C0 7.96615 0.182292 8.87305 0.546875 9.7207C0.911458 10.5775 1.41048 11.3226 2.04395 11.9561C2.67741 12.5895 3.42253 13.0885 4.2793 13.4531C5.12695 13.8177 6.03385 14 7 14C7.96615 14 8.87305 13.8177 9.7207 13.4531C10.5775 13.0885 11.3226 12.5895 11.9561 11.9561C12.5895 11.3226 13.0885 10.5775 13.4531 9.7207C13.8177 8.87305 14 7.96615 14 7C14 6.03385 13.8177 5.12695 13.4531 4.2793C13.0885 3.42253 12.5895 2.67741 11.9561 2.04395C11.3226 1.41048 10.5775 0.911458 9.7207 0.546875C8.87305 0.182292 7.96615 0 7 0ZM6.30273 12.5508C5.61003 12.4688 4.96745 12.2637 4.375 11.9355C3.77344 11.6165 3.25391 11.2109 2.81641 10.7188C2.37891 10.2266 2.03255 9.66146 1.77734 9.02344C1.52214 8.38542 1.39453 7.71094 1.39453 7C1.39453 6.78125 1.4082 6.56706 1.43555 6.35742C1.46289 6.14779 1.49935 5.94271 1.54492 5.74219L4.89453 9.10547V9.80273C4.89453 10.1855 5.03125 10.5137 5.30469 10.7871C5.57812 11.0605 5.91081 11.1973 6.30273 11.1973V12.5508ZM11.1289 10.7734C11.0378 10.4909 10.8714 10.2585 10.6299 10.0762C10.3883 9.89388 10.1126 9.80273 9.80273 9.80273H9.10547V7.69727C9.10547 7.50586 9.03711 7.3418 8.90039 7.20508C8.76367 7.06836 8.59505 7 8.39453 7H4.19727V5.60547H5.60547C5.79688 5.60547 5.96094 5.53711 6.09766 5.40039C6.23438 5.26367 6.30273 5.09505 6.30273 4.89453V3.5H7.69727C8.08919 3.5 8.42188 3.36328 8.69531 3.08984C8.96875 2.81641 9.10547 2.48828 9.10547 2.10547V1.80469C9.61589 2.01432 10.0853 2.29232 10.5137 2.63867C10.9421 2.98503 11.3112 3.38379 11.6211 3.83496C11.931 4.28613 12.1725 4.7806 12.3457 5.31836C12.5189 5.847 12.6055 6.40755 12.6055 7C12.6055 7.72917 12.4733 8.41732 12.209 9.06445C11.9447 9.71159 11.5846 10.2812 11.1289 10.7734Z" fill="#999999"/>
</svg>
