<svg width="14" height="14" viewBox="0 0 14 14" fill="none" xmlns="http://www.w3.org/2000/svg">
<path d="M7.00137 4.00816C5.26327 4.00816 3.86132 5.34365 3.86132 6.99935C3.86132 8.65505 5.26327 9.99053 7.00137 9.99053C8.73946 9.99053 10.1414 8.65505 10.1414 6.99935C10.1414 5.34365 8.73946 4.00816 7.00137 4.00816ZM7.00137 8.94401C5.87817 8.94401 4.95993 8.07191 4.95993 6.99935C4.95993 5.92679 5.87543 5.05469 7.00137 5.05469C8.1273 5.05469 9.0428 5.92679 9.0428 6.99935C9.0428 8.07191 8.12457 8.94401 7.00137 8.94401ZM11.0023 3.88581C11.0023 4.2737 10.6743 4.58349 10.2699 4.58349C9.86266 4.58349 9.53745 4.2711 9.53745 3.88581C9.53745 3.50052 9.86539 3.18812 10.2699 3.18812C10.6743 3.18812 11.0023 3.50052 11.0023 3.88581ZM13.082 4.5939C13.0355 3.65932 12.8114 2.83147 12.0927 2.14941C11.3767 1.46735 10.5076 1.25388 9.52652 1.20702C8.51537 1.15235 5.48463 1.15235 4.47348 1.20702C3.49512 1.25127 2.62607 1.46474 1.90733 2.14681C1.18859 2.82887 0.967234 3.65672 0.918042 4.5913C0.860653 5.55452 0.860653 8.44157 0.918042 9.40479C0.964501 10.3394 1.18859 11.1672 1.90733 11.8493C2.62607 12.5314 3.49239 12.7448 4.47348 12.7917C5.48463 12.8463 8.51537 12.8463 9.52652 12.7917C10.5076 12.7474 11.3767 12.534 12.0927 11.8493C12.8087 11.1672 13.0328 10.3394 13.082 9.40479C13.1393 8.44157 13.1393 5.55712 13.082 4.5939ZM11.7757 10.4383C11.5625 10.9485 11.1498 11.3416 10.6115 11.5473C9.80527 11.8519 7.89228 11.7816 7.00137 11.7816C6.11046 11.7816 4.19473 11.8493 3.39127 11.5473C2.85563 11.3442 2.44297 10.9512 2.22708 10.4383C1.90733 9.67033 1.98112 7.84802 1.98112 6.99935C1.98112 6.15067 1.91007 4.32577 2.22708 3.5604C2.44024 3.05015 2.8529 2.65705 3.39127 2.45139C4.19746 2.14681 6.11046 2.2171 7.00137 2.2171C7.89228 2.2171 9.808 2.14941 10.6115 2.45139C11.1471 2.65445 11.5598 3.04755 11.7757 3.5604C12.0954 4.32837 12.0216 6.15067 12.0216 6.99935C12.0216 7.84802 12.0954 9.67293 11.7757 10.4383Z" fill="white"/>
</svg>
