<svg width="32" height="32" viewBox="0 0 32 32" fill="none" xmlns="http://www.w3.org/2000/svg">
<path fill-rule="evenodd" clip-rule="evenodd" d="M27.6025 3.89752C25.4058 1.70083 21.8442 1.70083 19.6475 3.89752L12.8975 10.6475C10.7008 12.8442 10.7008 16.4058 12.8975 18.6025C13.3638 19.0688 13.8897 19.4348 14.4495 19.7023C15.0102 19.9701 15.2476 20.6417 14.9797 21.2023C14.7119 21.7629 14.0403 22.0003 13.4797 21.7325C12.6925 21.3565 11.9559 20.8429 11.3065 20.1935C8.23116 17.1181 8.23116 12.1319 11.3065 9.05654L18.0565 2.30653C21.1319 -0.768845 26.1181 -0.768845 29.1935 2.30653C32.2688 5.38191 32.2688 10.3681 29.1935 13.4435L26.558 16.0789C26.1187 16.5183 25.4064 16.5183 24.967 16.0789C24.5277 15.6396 24.5277 14.9273 24.967 14.4879L27.6025 11.8525C29.7992 9.65578 29.7992 6.09422 27.6025 3.89752ZM16.5203 10.2977C16.7881 9.73707 17.4597 9.49969 18.0203 9.76751C18.8075 10.1435 19.5441 10.6571 20.1935 11.3065C23.2688 14.3819 23.2688 19.3681 20.1935 22.4435L13.4435 29.1935C10.3681 32.2688 5.38191 32.2688 2.30653 29.1935C-0.768845 26.1181 -0.768845 21.1319 2.30653 18.0565L4.94199 15.4211C5.38133 14.9817 6.09364 14.9817 6.53298 15.4211C6.97232 15.8604 6.97232 16.5727 6.53298 17.0121L3.89752 19.6475C1.70083 21.8442 1.70083 25.4058 3.89752 27.6025C6.09422 29.7992 9.65578 29.7992 11.8525 27.6025L18.6025 20.8525C20.7992 18.6558 20.7992 15.0942 18.6025 12.8975C18.1362 12.4312 17.6103 12.0652 17.0505 11.7978C16.4898 11.5299 16.2525 10.8583 16.5203 10.2977Z" fill="#00A450"/>
</svg>
