<svg width="18" height="22" viewBox="0 0 18 22" fill="none" xmlns="http://www.w3.org/2000/svg">
<g clip-path="url(#clip0_365_13872)">
<path fill-rule="evenodd" clip-rule="evenodd" d="M1 0C0.44772 0 0 0.44772 0 1C0 1.55228 0.44772 2 1 2H17C17.5523 2 18 1.55228 18 1C18 0.44772 17.5523 0 17 0H1Z" fill="white"/>
<path fill-rule="evenodd" clip-rule="evenodd" d="M4 11C4 10.4477 4.44772 10 5 10H17C17.5523 10 18 10.4477 18 11C18 11.5523 17.5523 12 17 12H5C4.44772 12 4 11.5523 4 11Z" fill="white"/>
<path fill-rule="evenodd" clip-rule="evenodd" d="M10 21C10 20.4477 10.4477 20 11 20H17C17.5523 20 18 20.4477 18 21C18 21.5523 17.5523 22 17 22H11C10.4477 22 10 21.5523 10 21Z" fill="white"/>
</g>
<defs>
<clipPath id="clip0_365_13872">
<rect width="18" height="22" fill="white"/>
</clipPath>
</defs>
</svg>
