<svg width="32" height="32" viewBox="0 0 32 32" fill="none" xmlns="http://www.w3.org/2000/svg">
<path fill-rule="evenodd" clip-rule="evenodd" d="M11.25 4.5C11.7523 4.5 12.1937 4.83297 12.3317 5.31594L13.5515 9.58523C14.0854 11.4539 15.5461 12.9146 17.4148 13.4485L21.6841 14.6683C22.167 14.8063 22.5 15.2477 22.5 15.75C22.5 16.2523 22.167 16.6937 21.6841 16.8317L17.4148 18.0515C15.5461 18.5854 14.0854 20.0461 13.5515 21.9148L12.3317 26.1841C12.1937 26.667 11.7523 27 11.25 27C10.7477 27 10.3063 26.667 10.1683 26.1841L8.94849 21.9148C8.41458 20.0461 6.95389 18.5854 5.08522 18.0515L0.815939 16.8317C0.332974 16.6937 0 16.2523 0 15.75C0 15.2477 0.332974 14.8063 0.815939 14.6683L5.08522 13.4485C6.95389 12.9146 8.41459 11.4539 8.94849 9.58522L10.1683 5.31594C10.3063 4.83297 10.7477 4.5 11.25 4.5Z" fill="#00A450"/>
<path fill-rule="evenodd" clip-rule="evenodd" d="M24.75 0C25.2662 0 25.7162 0.351335 25.8414 0.852147L26.2297 2.40534C26.5824 3.81609 27.6839 4.9176 29.0947 5.27029L30.6479 5.65859C31.1487 5.78379 31.5 6.23377 31.5 6.75C31.5 7.26623 31.1487 7.71621 30.6479 7.84141L29.0947 8.22971C27.6839 8.5824 26.5824 9.68391 26.2297 11.0947L25.8414 12.6479C25.7162 13.1487 25.2662 13.5 24.75 13.5C24.2338 13.5 23.7838 13.1487 23.6586 12.6479L23.2703 11.0947C22.9176 9.68391 21.8161 8.5824 20.4053 8.22971L18.8521 7.84141C18.3513 7.71621 18 7.26623 18 6.75C18 6.23377 18.3513 5.78379 18.8521 5.65859L20.4053 5.27029C21.8161 4.9176 22.9176 3.81609 23.2703 2.40534L23.6586 0.852147C23.7838 0.351335 24.2338 0 24.75 0Z" fill="#00A450"/>
<path fill-rule="evenodd" clip-rule="evenodd" d="M22.5 20.25C22.9842 20.25 23.4141 20.5599 23.5673 21.0192L24.1586 22.7933C24.3826 23.4652 24.9098 23.9924 25.5817 24.2164L27.3558 24.8077C27.8151 24.9609 28.125 25.3908 28.125 25.875C28.125 26.3592 27.8151 26.7891 27.3558 26.9423L25.5817 27.5336C24.9098 27.7576 24.3826 28.2848 24.1586 28.9567L23.5673 30.7308C23.4141 31.1901 22.9842 31.5 22.5 31.5C22.0158 31.5 21.5859 31.1901 21.4327 30.7308L20.8414 28.9567C20.6174 28.2848 20.0902 27.7576 19.4183 27.5336L17.6442 26.9423C17.1849 26.7891 16.875 26.3592 16.875 25.875C16.875 25.3908 17.1849 24.9609 17.6442 24.8077L19.4183 24.2164C20.0902 23.9924 20.6174 23.4652 20.8414 22.7933L21.4327 21.0192C21.5859 20.5599 22.0158 20.25 22.5 20.25Z" fill="#00A450"/>
</svg>
