<svg width="32" height="29" viewBox="0 0 32 29" fill="none" xmlns="http://www.w3.org/2000/svg">
<path d="M10.7332 10.8C13.7155 10.8 16.1332 8.38234 16.1332 5.4C16.1332 2.41766 13.7155 0 10.7332 0C7.75087 0 5.3332 2.41766 5.3332 5.4C5.3332 8.38234 7.75087 10.8 10.7332 10.8Z" fill="#00A450"/>
<path d="M24.2332 12.6C26.7185 12.6 28.7332 10.5853 28.7332 8.1C28.7332 5.61472 26.7185 3.6 24.2332 3.6C21.7479 3.6 19.7332 5.61472 19.7332 8.1C19.7332 10.5853 21.7479 12.6 24.2332 12.6Z" fill="#00A450"/>
<path d="M1.04071 25.9703C0.325558 25.5125 -0.0886717 24.6979 0.0160924 23.8552C0.678687 18.5256 5.22419 14.4 10.733 14.4C16.2418 14.4 20.7873 18.5245 21.45 23.8539C21.5547 24.6966 21.1405 25.5112 20.4254 25.9691C17.6276 27.7605 14.3016 28.8 10.733 28.8C7.16447 28.8 3.83846 27.7615 1.04071 25.9703Z" fill="#00A450"/>
<path d="M24.2333 25.2C24.1698 25.2 24.1063 25.1996 24.0429 25.1987C24.1668 24.6644 24.2012 24.0993 24.1293 23.5208C23.8135 20.9812 22.7934 18.6607 21.2704 16.761C22.1894 16.3989 23.1906 16.2 24.2382 16.2C27.7298 16.2 30.7054 18.4092 31.8434 21.506C32.0881 22.1716 31.8013 22.9033 31.194 23.2695C29.1615 24.495 26.7797 25.2 24.2333 25.2Z" fill="#00A450"/>
</svg>
