<svg width="100" height="71" viewBox="0 0 100 71" fill="none" xmlns="http://www.w3.org/2000/svg">
<path d="M96.947 53.8451C94.8947 51.4342 92.3422 49.4719 89.8347 47.6355C90.1279 46.9377 90.4031 46.2322 90.6551 45.5176C92.3499 40.615 92.8514 35.0145 91.3546 29.941C89.3203 22.9256 81.7399 19.0009 75.6049 24.0719C68.4899 30.4242 71.4154 40.1022 77.9568 45.5408C79.0524 46.5072 80.1775 47.3785 81.3117 48.1919C78.8363 52.2361 75.3773 55.7432 71.4977 58.3288C68.7908 60.0649 65.6378 61.3141 62.3587 61.9797C58.7428 60.9003 55.1242 59.8542 51.4748 59.06C54.3848 60.0688 57.2408 61.1958 60.0865 62.3434C54.2061 63.0374 48.1533 61.8242 43.6822 58.1296C50.1169 52.5099 55.3171 45.4354 59.1748 37.8495C60.6729 34.9104 62.1517 31.1143 63.1148 27.9375C65.4488 20.1138 68.4977 1.77032 56.9258 0.0135944C46.236 -0.568555 37.3954 17.6953 34.0482 26.1319C29.7469 36.928 27.1776 49.2958 34.3208 59.5406C34.5253 59.8336 34.7375 60.1189 34.9535 60.4004C33.8103 61.2357 32.6337 62.026 31.4198 62.7611C21.9221 68.1636 9.17494 69.0928 0 62.382C8.76088 70.4588 22.4969 70.4755 32.8562 65.4829C34.3697 64.7209 35.8343 63.8791 37.254 62.9718C44.8293 70.2661 56.8448 72.0562 66.7475 68.8961C68.4874 68.3783 70.1642 67.7036 71.7844 66.9184C74.7677 67.9773 77.7986 68.9218 80.9246 69.6415C86.3525 70.9137 92.8669 71.1399 97.4125 67.2512C101.503 63.6054 100.283 57.5243 96.9483 53.8464L96.947 53.8451ZM40.7697 55.0492C35.3483 47.3014 37.9381 37.3393 41.1233 28.8448C43.5845 22.409 49.5164 9.09667 56.2082 6.81176C56.495 6.81947 56.63 6.87473 56.8602 7.00196C58.5049 8.47211 58.8251 11.6078 58.9022 13.822C59.2893 22.2908 56.7175 30.9048 52.9073 38.519C49.861 44.6502 45.8438 50.4229 40.9484 55.2754C40.8905 55.1996 40.8288 55.1276 40.7709 55.0505L40.7697 55.0492ZM77.6456 33.4043C77.5479 30.856 80.166 27.1047 82.8921 28.9244C84.9328 30.6593 85.2324 33.6395 85.145 36.6068C85.0061 38.8313 84.5303 41.0082 83.7806 43.0978C80.5813 40.5109 77.7279 37.4806 77.6456 33.4043ZM85.1463 67.1998C81.5702 66.9312 78.0481 66.2784 74.5543 65.4328C79.8638 62.2393 84.3117 57.649 87.4841 52.285C88.6414 53.0445 89.764 53.8065 90.8158 54.6148C92.7331 56.0914 94.4357 57.7094 95.2381 59.4867C97.8433 65.5048 89.5968 67.4157 85.1476 67.1998H85.1463Z" fill="white"/>
</svg>
